<?xml version="1.0" standalone="no"?>
<!DOCTYPE svg PUBLIC "-//W3C//DTD SVG 20010904//EN" "http://www.w3.org/TR/2001/REC-SVG-20010904/DTD/svg10.dtd">
<svg xmlns="http://www.w3.org/2000/svg" version="1.0" width="1024.000000pt" height="1024.000000pt" viewBox="0 0 1024.000000 1024.000000" preserveAspectRatio="xMidYMid meet">
<metadata>
Created by potrace 1.16, written by Peter Selinger 2001-2019
<meta name="Producer" content="Online-Convert"/></metadata>
<g transform="translate(0.000000,1024.000000) scale(0.100000,-0.100000)" fill="#000000" stroke="none">
<path d="M6020 6249 c-262 -6 -334 -10 -520 -30 -52 -5 -159 -11 -237 -12 -78 -1 -145 -5 -149 -9 -3 -4 -5 -29 -4 -55 10 -149 -14 -898 -29 -915 -9 -11 -409 -13 -638 -4 l-202 9 1 116 c1 163 -38 306 -113 408 -118 162 -234 252 -373 289 -153 41 -527 -24 -826 -143 -69 -28 -147 -58 -175 -67 -131 -46 -111 -20 -182 -237 -72 -219 -72 -240 5 -168 167 159 371 270 650 354 209 63 368 77 541 49 65 -10 50 12 -42 64 -81 45 -93 65 -63 104 25 34 127 1 216 -70 107 -85 186 -181 230 -277 58 -128 93 -292 69 -322 -6 -7 -24 -13 -40 -13 -33 0 -50 26 -69 110 -28 123 -94 274 -143 328 -39 43 -51 17 -18 -40 42 -72 141 -378 141 -437 l0 -30 -297 1 c-312 1 -364 -5 -399 -43 -15 -16 -17 -47 -17 -231 0 -206 4 -258 23 -258 17 0 29 35 45 131 8 52 23 133 31 181 l17 87 61 5 c190 17 347 19 995 18 l713 -2 -6 43 c-26 178 -28 888 -3 904 6 4 58 15 116 25 58 10 151 26 206 36 84 14 167 17 525 17 442 0 461 -1 605 -46 71 -22 149 -92 170 -153 27 -77 91 -144 116 -119 31 31 17 183 -24 255 -75 136 -248 164 -907 147z"/>
<path d="M6204 5966 c-3 -8 -1 -23 5 -35 11 -20 16 -131 5 -131 -3 0 -12 7 -20 15 -23 23 -63 29 -89 15 -55 -29 -74 -139 -32 -178 36 -34 74 -28 117 18 l37 40 12 -40 c11 -37 34 -60 60 -60 16 0 13 30 -3 36 -23 9 -28 31 -36 166 -8 122 -19 168 -41 168 -5 0 -12 -6 -15 -14z"/>
<path d="M5492 5940 c-41 -25 -69 -71 -83 -138 -13 -63 -7 -91 24 -128 45 -52 162 -42 213 19 l27 32 -7 -52 c-5 -43 -4 -53 8 -53 34 0 41 126 8 169 -17 22 -26 26 -68 25 -62 -2 -116 -16 -122 -32 -7 -21 24 -24 78 -8 55 16 82 11 94 -20 9 -22 8 -24 -9 -18 -9 4 -27 -6 -44 -25 -26 -27 -35 -31 -83 -31 -75 0 -93 20 -85 94 7 68 29 112 70 136 40 25 42 25 66 -1 18 -20 41 -19 41 2 0 19 -41 49 -67 49 -16 0 -43 -9 -61 -20z"/>
<path d="M5805 5808 c-11 -6 -27 -14 -35 -18 -9 -4 -16 -24 -18 -53 -3 -39 1 -51 22 -72 34 -34 71 -32 107 6 33 36 39 90 13 127 -17 24 -55 28 -89 10z"/>
<path d="M6387 5785 c-20 -14 -39 -36 -43 -49 -7 -29 17 -79 48 -100 42 -30 163 -12 155 23 -2 9 -10 14 -18 12 -69 -18 -86 -19 -108 -8 -34 17 -38 37 -7 37 68 0 109 43 81 86 -20 32 -60 31 -108 -1z"/>
<path d="M6582 5798 c-13 -13 -16 -41 -4 -52 4 -4 12 -35 17 -69 12 -76 30 -80 55 -13 36 93 80 116 80 41 0 -51 25 -109 43 -102 7 2 10 13 9 23 -2 10 -8 46 -14 79 -15 85 -15 85 -44 85 -16 0 -39 -13 -61 -35 -19 -19 -37 -35 -39 -35 -2 0 -4 13 -4 28 0 39 -21 67 -38 50z"/>
<path d="M5486 5512 c-54 -19 -80 -47 -58 -61 10 -6 14 -43 15 -144 1 -74 5 -139 9 -142 18 -18 28 12 28 82 l0 76 47 -6 c61 -7 78 -28 86 -107 4 -34 9 -66 13 -71 12 -20 24 4 24 49 0 102 -39 162 -104 162 l-31 0 58 55 c60 58 69 81 39 108 -23 21 -63 21 -126 -1z"/>
<path d="M6154 5337 c-53 -52 -54 -54 -43 -88 18 -54 42 -69 113 -69 73 0 108 8 103 24 -2 7 -28 10 -73 8 -48 -2 -75 1 -88 11 -18 13 -17 15 17 21 48 9 97 56 97 93 0 71 -53 71 -126 0z"/>
<path d="M5400 4780 c-8 -5 -25 -10 -38 -10 -32 0 -38 -25 -18 -79 13 -38 16 -89 16 -303 0 -220 2 -259 16 -272 19 -19 40 -21 51 -3 4 6 8 53 8 102 l0 90 67 -2 c87 -2 172 -28 209 -66 17 -16 43 -56 59 -88 31 -60 57 -83 84 -73 24 9 28 35 9 63 -9 14 -28 47 -41 73 -43 86 -120 136 -243 159 l-67 12 55 65 c67 79 92 132 93 194 0 56 -33 101 -95 129 -43 20 -140 25 -165 9z m135 -74 c78 -33 69 -106 -26 -210 -33 -36 -65 -66 -69 -66 -12 0 -17 273 -5 282 16 12 63 9 100 -6z"/>
<path d="M6178 4770 c-85 -45 -122 -139 -122 -315 -2 -244 68 -345 240 -346 73 -1 149 14 159 31 12 19 25 9 25 -19 0 -16 8 -39 18 -51 15 -19 22 -21 38 -12 17 10 19 21 15 139 -4 146 -14 187 -54 217 -36 27 -129 28 -204 2 -59 -20 -77 -37 -68 -65 9 -30 36 -34 86 -12 110 47 159 31 162 -53 l2 -48 -55 -30 c-49 -27 -62 -29 -127 -26 -64 3 -76 7 -103 33 -44 43 -65 119 -63 237 2 175 50 268 138 268 34 0 65 -17 65 -35 0 -15 26 -45 40 -45 16 0 40 31 40 52 0 11 -17 38 -39 59 -36 37 -42 39 -97 39 -39 -1 -72 -8 -96 -20z"/>
<path d="M4954 4772 c-17 -11 -109 -253 -134 -352 -6 -25 -29 -102 -52 -172 -34 -107 -39 -130 -28 -143 7 -9 23 -15 34 -13 17 2 28 22 53 93 17 50 33 93 35 97 2 3 37 9 79 13 l76 7 7 -48 c15 -113 18 -125 36 -134 14 -7 23 -6 35 7 20 20 16 66 -21 250 -13 67 -29 167 -34 222 -11 112 -18 150 -33 169 -11 13 -36 16 -53 4z"/>
<path d="M4330 4760 c-42 -5 -45 -7 -50 -40 -5 -36 -8 -37 -63 -24 -37 9 -70 -20 -64 -55 6 -30 -38 -72 -68 -65 -16 4 -25 -5 -45 -40 -23 -43 -23 -46 -6 -59 24 -18 12 -67 -16 -67 -18 0 -20 -5 -15 -37 4 -21 15 -44 26 -53 30 -24 44 -57 26 -64 -22 -8 -19 -19 20 -61 22 -23 41 -35 51 -31 23 9 94 -24 94 -44 0 -12 10 -19 33 -23 17 -4 41 -9 53 -12 15 -5 23 0 31 18 13 29 66 45 88 27 20 -17 79 1 83 26 4 32 -21 69 -48 70 -36 2 -50 -6 -50 -27 0 -25 -45 -36 -68 -17 -9 8 -32 21 -51 28 -31 13 -35 12 -52 -8 -14 -19 -22 -21 -43 -12 -23 8 -25 12 -14 29 10 17 9 24 -12 46 -13 14 -34 25 -47 25 -22 0 -33 24 -15 32 15 6 1 88 -14 88 -8 0 -14 7 -14 15 0 8 7 15 16 15 9 0 29 14 45 31 27 29 28 33 14 49 -15 16 -15 19 0 34 10 10 25 14 38 11 16 -4 31 3 55 26 17 17 32 37 32 44 0 18 21 24 41 12 17 -10 79 16 79 33 0 6 13 10 30 10 21 0 28 -4 24 -14 -7 -18 30 -56 54 -56 10 0 23 5 29 11 8 8 13 8 17 0 4 -6 12 -11 17 -11 16 0 3 89 -16 110 -20 22 -71 27 -77 8 -4 -10 -10 -10 -32 0 -15 7 -32 9 -37 6 -6 -3 -16 0 -22 8 -8 9 -26 12 -57 8z"/>
<path d="M7195 4708 c-12 -28 -45 -36 -57 -14 -19 34 -103 -3 -103 -45 0 -21 -5 -24 -33 -24 -24 0 -40 -8 -58 -28 -28 -32 -30 -50 -9 -67 23 -19 18 -40 -10 -40 -21 0 -24 -4 -20 -32 2 -18 11 -38 20 -44 21 -15 19 -31 -5 -46 -13 -9 -20 -24 -20 -45 0 -28 4 -33 24 -33 33 0 44 -34 21 -60 -16 -18 -16 -22 -1 -54 20 -43 30 -50 46 -31 16 19 31 19 70 -2 20 -12 29 -24 26 -35 -5 -22 -2 -24 57 -32 43 -7 47 -5 47 13 0 14 8 22 25 26 14 3 37 7 51 10 18 4 30 0 39 -11 11 -16 17 -16 54 -6 37 12 41 16 41 46 0 32 33 76 57 76 7 0 21 12 32 27 18 22 20 34 15 75 -5 33 -3 48 5 48 6 0 11 18 11 45 0 25 -4 45 -9 45 -14 0 -23 49 -12 67 5 10 5 27 -1 44 -7 21 -17 29 -41 31 -29 3 -32 6 -29 35 2 23 -2 34 -17 42 -25 14 -68 14 -76 1 -9 -14 -32 -1 -38 21 -4 15 -14 19 -49 19 -35 0 -45 -4 -53 -22z m6 -75 c7 -20 13 -23 21 -15 7 7 24 12 39 12 15 0 31 5 34 10 11 18 27 11 22 -10 -7 -27 15 -42 55 -38 29 3 33 0 30 -19 -5 -34 15 -63 43 -63 20 0 25 -5 25 -24 0 -15 -7 -26 -20 -29 -17 -4 -20 -11 -14 -34 3 -15 13 -33 20 -39 15 -12 19 -44 6 -44 -5 0 -19 -10 -31 -21 -17 -16 -22 -29 -17 -49 6 -32 -21 -64 -47 -55 -19 8 -71 -18 -90 -45 -8 -12 -30 -23 -49 -26 -30 -5 -36 -3 -41 15 -6 25 -58 30 -79 7 -16 -17 -61 1 -53 21 6 17 -44 83 -62 83 -16 0 -17 16 -3 25 6 4 9 14 6 23 -15 55 -16 92 -4 90 17 -4 23 49 8 67 -9 10 -7 20 5 39 10 14 22 26 27 26 5 0 8 10 7 23 -5 32 9 51 26 37 20 -16 95 8 95 30 0 38 27 40 41 3z"/>
</g>
</svg>
